<?xml version="1.0" encoding="UTF-8" standalone="no"?>
<svg
   xmlns:dc="http://purl.org/dc/elements/1.1/"
   xmlns:cc="http://creativecommons.org/ns#"
   xmlns:rdf="http://www.w3.org/1999/02/22-rdf-syntax-ns#"
   xmlns:svg="http://www.w3.org/2000/svg"
   xmlns="http://www.w3.org/2000/svg"
   id="svg2"
   width="439.99997"
   height="400"
   version="1.1">
  <metadata
     id="metadata16">
    <rdf:RDF>
      <cc:Work
         rdf:about="">
        <dc:format>image/svg+xml</dc:format>
        <dc:type
           rdf:resource="http://purl.org/dc/dcmitype/StillImage" />
        <dc:title></dc:title>
      </cc:Work>
    </rdf:RDF>
  </metadata>
  <defs
     id="defs14" />
  <path
     style="fill:#ffffff;fill-rule:evenodd;stroke:#000000;stroke-width:0.66736919px;stroke-linecap:butt;stroke-linejoin:miter;stroke-opacity:1"
     d="m 210.24533,17.46465 7.86534,12.27465 14.38524,-4.81166 -6.93385,-12.37284 z"
     id="path2491" />
  <path
     style="fill:#000000;fill-rule:evenodd"
     d="M 248.07881,4.9647725e-5 C 243.98384,0.00604965 240.95409,0.39764965 237.37378,1.2392596 c -3.52927,0.8296 -9.60617,1.50058 -13.48842,1.48298 -15.46657,0.41817 -33.04373,5.1958 -44.84701,14.8425504 -6.65932,6.0405 -6.94434,12.36983 -7.20085,20.5866 -0.24774,7.79811 3.01338,7.63047 5.65226,3.88014 3.72728,-5.83398 17.13293,-12.72009 22.91954,-6.38568 4.61074,5.04721 4.4176,6.12508 0.23541,8.72522 -3.623,2.25238 -15.37929,3.51739 -19.80792,1.91978 -3.91403,-1.41203 -5.37547,0.80461 -2.64046,3.15561 8.0815,6.81218 16.64019,3.61033 25.19962,3.16912 2.74824,0.6819 2.66499,1.51021 -0.23554,2.07212 -0.94698,0.18346 -2.6023,0.64045 -3.66109,1.01574 -5.28976,1.875 -12.62612,2.80117 -16.37874,2.0518 -2.30592,-0.46047 -4.48584,-0.39943 -4.83861,0.14221 8.55903,12.51549 19.12177,2.16194 24.83569,11.96546 1.16731,3.17735 0.79926,4.04169 -3.76818,8.83697 -7.49421,7.86801 -11.27485,15.51787 -11.73272,23.7481 -0.35133,6.3139 -0.7191,7.13242 -3.55414,7.88217 -7.13938,1.88806 -10.20606,1.19906 -14.3233,-3.25038 -2.20788,-2.38599 -9.11035,-7.97018 -15.35099,-12.39208 -6.24071,-4.42189 -11.34734,-8.25436 -11.34741,-8.51193 0,-0.25757 1.94904,-2.37092 4.34628,-4.71305 2.39731,-2.34214 6.01455,-6.52499 8.02881,-9.2839 3.21446,-4.40284 3.6452,-6.03472 3.51125,-13.36719 -0.10139,-5.54592 -0.80947,-9.04857 -2.09825,-10.44185 -1.06776,-1.15429 -2.30784,-3.27536 -2.76187,-4.69274 -1.35051,-4.21595 -10.53293,-12.24158 -14.96567,-13.08278 -2.24577,-0.42617 -6.26832,-0.77196 -8.92797,-0.77196 -6.02921,0 -23.69085,3.29847 -28.8394,5.38344 -2.117439,0.85752 -5.879459,2.29075 -8.349899,3.18944 -7.31498,2.661 -23.00537,12.55839 -23.87223,15.05332 -0.47638,1.37107 -0.0971,2.67638 0.94204,3.23007 0.96269,0.51293 3.20254,2.14068 4.96714,3.61604 1.76461,1.47538 4.51373,3.50551 6.10187,4.50991 3.45876,2.18745 3.71595,5.62964 0.6423,8.59319 -1.23523,1.19099 -4.85715,5.15205 -8.02878,8.81666 -3.17164,3.66461 -7.78031,8.61953 -10.25542,11.01066 -2.47511,2.39114 -7.96867,8.09503 -12.20374,12.67648 -9.94525,10.75865 -19.38014,20.66804 -25.02838,26.28746 -2.47045,2.45785 -7.947256,8.17814 -12.182333,12.69679 -4.235064,4.51866 -9.278989,9.78841 -11.197469,11.72169 -1.91845205,1.93326 -3.17416505,4.26673 -2.80472005,5.18029 0.369459,0.91356 6.15039205,3.76246 12.86745505,6.33824 6.717056,2.57577 12.502157,5.11957 12.846047,5.64754 1.07809,1.65517 4.23548,1.05051 6.57289,-1.25952 1.23522,-1.22077 3.93536,-4.10383 5.99482,-6.39919 2.05948,-2.29536 5.79999,-6.39526 8.32852,-9.12138 2.52851,-2.7261 8.07571,-8.73572 12.31079,-13.34687 4.23507,-4.61116 8.85167,-9.53718 10.27684,-10.94972 1.42515,-1.41254 4.60833,-4.97384 7.06532,-7.9228 9.06912,-10.88508 15.7833,-17.12161 17.10665,-15.86592 0.86074,0.81672 0.11849,2.75773 -2.24806,5.83037 -1.94651,2.52728 -9.25314,12.53358 -16.22883,22.24479 -6.9757,9.71119 -15.21548,20.96759 -18.30562,25.02793 -3.09013,4.06035 -9.8866,13.30824 -15.11551,20.53834 -5.22893,7.23008 -12.29153,16.98195 -15.69358,21.67597 -3.40206,4.69405 -7.207497,9.57557 -8.456982,10.84815 -1.249499,1.27256 -3.095273,3.81705 -4.089324,5.64753 -0.994078,1.83049 -2.091802,3.60621 -2.462158,3.94109 -0.37035,0.33487 -1.73421,2.16993 -3.018821,4.08329 -3.644406,5.42809 -1.618684,6.15914 18.219975,6.64296 l 17.68472,0.44693 5.05278,-7.71965 c 16.49833,-25.15587 31.97669,-49.75434 49.99249,-74.4134 2.832909,-1.50423 3.904579,2.16695 1.605789,5.50533 -1.034059,1.50174 -4.481329,7.39002 -7.664809,13.08278 -3.18343,5.69277 -9.47073,16.93013 -13.95937,24.96699 -7.65041,13.69799 -11.46606,20.46422 -19.91137,35.30726 -1.90531,3.34869 -4.83863,8.56565 -6.53007,11.57948 -10.91242,19.44404 -13.59688,24.05903 -15.47948,26.775 -1.16059,1.67435 -3.49156,5.51844 -5.18124,8.53225 -1.68967,3.01383 -5.03306,8.87088 -7.4293,13.02184 -2.39622,4.15096 -3.806,7.86155 -3.14728,8.24784 0.65873,0.38629 8.003,0.13957 16.33589,-0.56882 23.19544,-1.97189 23.49817,-2.04865 25.00696,-6.1554 11.26251,-22.47289 22.84393,-44.81366 33.80651,-67.50634 9.266489,-18.19668 19.577029,-38.74913 25.756289,-51.35601 4.48529,-9.15071 6.35026,-11.20164 8.41419,-9.24327 0.80344,0.7623 0.34407,3.087 -1.30605,6.54139 -1.4056,2.94239 -4.69822,10.53947 -7.3008,16.90198 -5.78504,14.14204 -15.99329,37.6285 -21.70981,49.93397 -2.333369,5.02303 -6.649479,14.61293 -9.591719,21.3103 -2.94224,6.69738 -6.12232,13.81608 -7.08673,15.82529 -0.9644,2.00922 -3.75439,8.32448 -6.18751,14.01727 -2.43314,5.69277 -5.4313,12.53687 -6.65854,15.21584 -1.22723,2.67895 -2.97099,6.50272 -3.87522,8.51193 -0.90423,2.00921 -2.56882,5.66037 -3.70394,8.10564 -1.13511,2.4453 -2.05538,5.64168 -2.05537,7.11021 0,2.50579 0.39075,2.61832 6.44443,1.82834 3.54781,-0.463 9.45871,-1.58767 13.14579,-2.51905 3.68709,-0.93139 8.49496,-1.71881 10.68362,-1.72676 2.18867,-0.008 5.78738,-0.59322 7.98596,-1.32047 3.630049,-1.20071 4.305649,-2.30364 7.300799,-11.8842 1.81407,-5.80271 4.14678,-12.80427 5.20269,-15.5612 1.05584,-2.75692 2.18286,-6.03154 2.48356,-7.29304 0.3007,-1.26151 3.21645,-10.5329 6.48729,-20.57897 3.27091,-10.04607 6.74195,-20.71396 7.70763,-23.72778 14.58509,-45.52069 21.45666,-63.89179 24.10767,-64.35753 2.02111,-0.35507 2.27249,0.18155 1.67006,3.65668 -0.38792,2.23787 -1.8832,7.90705 -3.3186,12.59522 -2.35757,7.70002 -6.43864,21.9902 -14.77295,51.74199 -1.59476,5.69277 -4.3854,15.0081 -6.18755,20.70086 -5.17013,16.33208 -8.75271,30.50635 -8.00729,31.65058 0.37606,0.57739 3.99905,-0.17423 8.05018,-1.66582 4.05113,-1.49159 10.65838,-3.68725 14.68725,-4.87557 4.34443,-1.28135 7.57587,-2.97871 7.94317,-4.18486 0.34057,-1.11856 1.33852,-4.50269 2.20527,-7.51651 0.86668,-3.01381 1.73124,-6.03417 1.92684,-6.70391 0.1956,-0.66973 2.15471,-8.06301 4.34628,-16.43473 2.19164,-8.37172 5.44151,-20.70739 7.2366,-27.40477 1.79509,-6.69738 3.46761,-12.99234 3.70398,-13.99695 1.40532,-5.97298 4.58196,-19.06095 4.8815,-20.09142 1.04467,-3.59438 5.00612,-9.14169 6.53003,-9.14169 2.42774,0 3.31853,2.76015 3.3186,10.31996 0,6.55962 -2.92479,23.72207 -5.22406,30.61452 -0.69348,2.07853 -1.50076,4.804 -1.77707,6.07415 -0.81523,3.74829 -9.15104,22.69427 -14.08783,31.99593 -2.51481,4.73833 -4.58175,9.18657 -4.58175,9.87303 0,0.68645 2.26487,1.23922 5.0314,1.23921 h 5.03133 c -5.14109,10.44821 -6.34868,23.10283 -12.80322,32.99136 -1.09777,1.60749 -2.36367,4.29823 -2.82613,5.97257 -1.79591,6.50191 -4.72844,8.37151 -14.96568,9.52768 -5.29387,0.59785 -12.31411,0.88734 -15.58653,0.65007 -5.55299,-0.40259 -6.24804,-0.0971 -10.57651,4.44896 -3.43356,3.60605 -4.64602,5.96103 -4.64602,9.06044 0,5.16152 2.408,6.85584 4.8173,3.4129 1.46267,-2.09025 2.4391,-2.34856 5.54517,-1.5033 2.81497,0.76603 3.76818,0.61443 3.76818,-0.58914 3.39409,-3.61847 1.74453,0.5946 8.32855,-3.73793 2.5257,-1.42346 8.98689,-1.58956 10.38385,-0.2641 1.16224,1.10283 -2.23672,5.59821 -9.42043,12.47334 -7.43063,7.11147 -7.9046,8.9485 -5.0314,19.50228 1.28686,4.72674 2.29365,6.15805 4.47474,6.46013 2.3575,0.32653 2.80475,-0.18266 2.80468,-3.25038 0,-2.42368 0.76816,-3.89523 2.26954,-4.34738 1.43081,-0.43092 3.59347,-4.25402 5.88774,-10.3809 1.99699,-5.33294 4.44548,-10.33062 5.43816,-11.11224 0.99253,-0.78163 1.79844,-2.18559 1.79844,-3.10818 0,-0.92261 0.85736,-1.6658 1.88409,-1.66582 2.49398,0 3.76468,6.96116 2.91177,15.88624 -0.65724,6.87681 -0.51741,7.26794 4.11073,12.16861 5.98434,6.33662 9.6605,6.29329 9.80582,-0.14221 0.0534,-2.37469 0.46588,-4.88844 0.9206,-5.58659 1.12538,-1.7278 0.21704,-5.72307 -2.09812,-9.14169 -1.91821,-2.83244 -3.89534,-13.15505 -3.76818,-19.72575 0.0418,-2.14966 1.36696,-4.63011 3.44699,-6.46013 4.44473,-3.27612 5.39623,-2.44888 11.66846,-2.07212 3.52927,0.17028 7.58053,0.53871 8.99223,0.8126 1.41176,0.27387 4.18808,0.0665 6.1661,-0.46724 2.65745,-0.71709 3.77756,-0.50811 4.30346,0.79228 0.93403,2.30949 4.17102,2.25779 5.11697,-0.0813 0.43971,-1.08726 -1.21068,-4.09503 -4.02509,-7.35399 -4.48495,-5.19342 -5.10814,-5.50776 -10.72641,-5.3225 -4.60827,-0.37702 -25.20422,10.22422 -19.16205,-1.66582 2.70301,-5.0425 4.05613,-7.56959 4.47473,-8.63382 0.007,-0.0165 0.0151,-0.0248 0.0212,-0.0406 l 4.4533,-7.86186 c 1.76275,-2.05451 2.88169,-4.11677 2.97597,-5.28187 l 1.17752,-2.07211 c 0.31159,-0.0784 0.64915,-0.49298 0.94204,-1.30016 0.66032,-1.81947 3.6382,0.45993 4.19637,3.20976 1.96774,9.69465 6.96598,20.0335 7.23668,14.97206 0.0528,-0.98069 0.32605,-3.14026 0.62085,-4.81463 0.29481,-1.67434 1.18773,-6.89132 1.96973,-11.57948 0.78207,-4.68816 2.50837,-12.28586 3.83244,-16.90197 3.7542,-13.0883 4.55408,-12.78857 6.46577,2.43778 4.34827,34.63113 -1.1534,66.90527 -15.58653,91.41695 -10.04533,17.05999 -10.1516,17.43015 -4.4533,17.43016 3.18822,0 16.48117,-3.02221 18.49831,-4.20518 1.9763,-1.15891 5.25961,0.70443 7.10814,4.04267 0.975,1.76062 3.76208,5.24875 6.20899,7.76028 2.44692,2.51152 5.24537,4.57695 6.20886,4.57085 0.96362,-0.006 4.2731,-3.82544 7.34369,-8.47131 3.07051,-4.64588 6.52168,-8.62385 7.68625,-8.85728 1.16457,-0.23344 4.50269,0.22811 7.40781,1.03605 8.81212,2.45056 18.45549,2.55124 18.45556,0.18284 0,-1.37066 -8.49463,-14.08371 -10.38392,-15.54088 -2.01385,-1.55321 -12.13167,-23.72909 -15.56509,-34.10868 -3.66233,-11.0715 -3.83169,-12.72901 -4.34628,-38.57795 -0.5307,-26.66159 0.0144,-30.82434 3.59689,-27.42509 1.83599,1.74205 5.86437,15.89582 8.32848,29.21279 2.60265,14.06502 4.70268,14.29585 8.02882,0.91417 2.20705,-8.87934 3.69068,-10.07723 7.3008,-5.89131 1.62045,1.87881 2.97206,3.79739 2.99741,4.26612 0.0254,0.46873 1.70287,3.21452 3.72542,6.09447 5.50468,7.83841 8.42981,14.32749 7.04388,15.64245 -0.73911,0.70134 -2.89211,0.68433 -5.63088,-0.0609 -2.43726,-0.66326 -7.95339,-1.21889 -12.24657,-1.21889 -8.18974,0 -10.909,1.54065 -14.49458,8.14626 -2.76577,5.09548 -0.87641,10.74262 2.01254,6.01321 0.69821,-1.14294 4.85841,-1.92401 13.01733,-2.43779 6.59643,-0.41539 12.42031,-1.00028 12.93168,-1.30015 0.51131,-0.29986 3.22028,0.11207 6.03764,0.91417 5.11246,1.45557 5.13527,1.46205 5.41672,8.14627 0.15511,3.68355 -0.66121,10.54799 -1.81982,15.23615 -2.31887,9.3831 -2.53968,11.90754 -1.45589,16.43474 0.40087,1.67434 0.7611,4.00827 0.81358,5.18029 0.16443,3.67418 3.59388,2.31985 8.45695,-3.31132 3.70494,-4.29011 4.46953,-5.99471 3.68253,-8.20721 -1.32379,-3.72165 -1.47753,-14.28781 -0.25692,-17.71458 5.36691,-8.60791 8.94469,5.11231 10.68366,8.34942 2.43253,4.28338 4.43727,8.73672 4.4533,9.89334 0.0158,1.15661 1.46835,2.98621 3.23295,4.08329 1.76461,1.09707 3.21152,3.00259 3.21145,4.2255 0,1.22293 0.63949,2.59359 1.41313,3.04723 2.80852,1.64703 5.27606,-2.85883 5.95193,-10.84814 0,0 1.04516,-5.53315 0.16765,-7.78736 -1.35805,-3.48869 -8.75305,-8.93179 -8.75305,-8.93179 -5.8787,-5.54487 -8.78622,-9.15435 -8.00737,-9.89334 1.96733,-1.86674 11.79692,-2.74492 11.79692,-1.05638 0,2.03541 8.67166,5.22214 11.71134,4.30676 1.39375,-0.41973 3.41623,-0.0547 4.51756,0.81259 1.66916,1.31446 2.30085,1.21116 3.70391,-0.60944 2.3055,-2.99173 0.28857,-8.06731 -4.94576,-12.51397 -4.02201,-3.41682 -4.33553,-3.47837 -18.84087,-3.35195 -8.11719,0.0707 -15.72623,-0.34168 -16.91389,-0.91417 -6.50373,-9.54073 -12.93792,-21.35716 -17.51351,-32.09751 -1.63059,-4.01842 -3.5157,-8.26743 -4.19637,-9.46673 -1.77659,-3.13001 -0.14538,-4.83555 4.08936,-4.24581 2.01672,0.28084 3.87882,-0.0735 4.13211,-0.79228 0.25336,-0.71877 -3.72138,-8.98832 -8.84233,-18.36465 -9.27937,-16.99008 -13.86222,-28.2078 -17.62053,-43.23006 -4.33901,-17.34372 -3.72514,-28.31842 1.43451,-25.69832 2.88875,1.46694 5.49948,7.169 9.78437,21.4322 1.81085,6.02764 4.80251,15.61754 6.65857,21.3103 1.85613,5.69278 4.13293,12.83179 5.05278,15.84561 7.50291,24.5816 12.64976,39.78361 13.87373,40.99542 1.64073,1.62444 22.85431,7.83459 27.76883,8.12595 2.71589,0.16102 3.14759,-0.28748 2.80475,-2.8644 -0.88305,-6.63781 -1.43074,-8.59804 -3.21151,-11.84357 -1.55516,-2.83448 -6.72379,-16.27535 -7.85746,-20.41645 -0.18341,-0.66974 -0.71164,-2.04263 -1.15621,-3.04723 -7.39446,-19.22984 -12.50849,-39.8287 -20.33951,-59.05535 -2.27714,-6.69739 -4.34141,-12.99235 -4.6032,-13.99695 -2.08647,-8.0092 1.21418,-9.58076 4.71022,-2.23464 4.14019,8.69964 20.23961,49.05585 30.27385,75.89638 5.85505,15.66149 10.47291,27.6193 14.79432,38.35449 1.48281,3.68356 2.90218,7.55199 3.14732,8.59319 0.81529,3.46207 4.25988,10.5916 5.4596,11.29508 0.65032,0.38141 4.84478,1.01675 9.33479,1.42204 4.48988,0.40529 8.55465,0.97787 9.03499,1.25952 0.48034,0.28168 5.0647,0.81802 10.19119,1.19858 5.12657,0.38053 9.9523,0.79475 10.70504,0.93448 3.07565,0.57092 2.15327,-5.7336 -1.64854,-11.29507 -0.68677,-1.00461 -6.81259,-12.79113 -13.61681,-26.18588 -6.80422,-13.39475 -16.31263,-32.0254 -21.11033,-41.40172 -4.79757,-9.37633 -11.15777,-21.98658 -14.13065,-28.01421 -2.97275,-6.02764 -8.22332,-16.61699 -11.66853,-23.54495 -4.84443,-9.88037 -9.40529,-19.04966 -13.42408,-29.11122 -0.60572,-3.11951 2.2792,-2.85594 5.3097,0.48756 1.72548,1.90374 3.14649,3.90359 3.14725,4.44896 0,0.54537 7.02168,13.4302 15.60797,28.62366 8.5863,15.19346 18.9385,33.64862 22.99442,41.01574 4.05593,7.36712 10.01937,18.05533 13.27425,23.74809 3.25488,5.69277 7.66556,13.71933 9.78437,17.83646 2.11888,4.11712 4.56696,8.0528 5.4596,8.75572 0.91985,0.72439 8.55588,1.34827 17.62053,1.42204 25.49299,0.20744 23.474,0.50795 22.48051,-3.35196 -0.47404,-1.84177 -2.38978,-5.47846 -4.26057,-8.065 -1.8708,-2.58656 -4.00016,-5.64823 -4.73166,-6.8258 -0.73151,-1.17757 -5.38637,-7.83756 -10.31959,-14.78923 -9.11994,-12.85133 -11.295,-16.08151 -13.10297,-19.33977 -0.55748,-1.00461 -4.26351,-6.47585 -8.22146,-12.16861 -3.95802,-5.69277 -8.27731,-12.19242 -9.61316,-14.42356 -1.33585,-2.23113 -3.30435,-5.50576 -4.36766,-7.29304 -4.60916,-7.74719 -21.37671,-34.47857 -27.10515,-43.20975 -3.43644,-5.23774 -6.25167,-10.31742 -6.25174,-11.27475 0,-3.16667 4.53475,-1.80053 6.95824,2.09243 1.31057,2.10493 7.47989,10.73381 13.70244,19.17724 40.67394,55.1905 40.98649,55.5756 44.85414,55.39867 13.56858,-0.62074 32.36923,-2.76015 33.46398,-3.79888 1.38012,-1.30953 -1.58324,-8.18845 -4.6032,-10.68562 -0.80995,-0.66974 -3.72384,-3.94435 -6.48728,-7.29305 -2.76331,-3.34868 -5.36657,-6.36904 -5.78065,-6.70391 -0.4143,-0.33486 -2.41335,-2.80606 -4.4533,-5.48501 -2.04002,-2.67895 -4.36067,-5.4044 -5.13842,-6.07415 -0.77768,-0.66973 -5.00646,-5.61213 -9.39905,-10.97003 -4.39253,-5.35791 -10.6257,-12.75119 -13.85236,-16.43474 -10.97518,-12.52959 -32.76755,-39.38617 -36.76106,-45.30218 -1.22301,-1.81174 -3.49926,-4.41653 -5.05278,-5.78974 -2.22781,-1.96936 -2.48103,-2.82618 -1.24178,-4.00203 1.53611,-1.45757 3.0257,-0.10407 35.43364,31.9553 1.69259,1.67435 5.86321,5.61765 9.27059,8.75572 3.40739,3.13806 9.26567,8.74658 13.01733,12.47333 3.75166,3.72675 7.91241,6.78518 9.24915,6.78517 1.33674,0 7.62439,-2.47121 13.95937,-5.48502 6.33498,-3.01382 12.11509,-5.48501 12.86749,-5.48501 1.26652,0 1.53734,-0.49549 1.88409,-3.55511 0.15641,-1.38078 -12.05083,-13.21175 -37.81026,-36.62772 -17.67143,-16.06386 -23.23079,-21.31533 -44.51152,-42.07211 -3.70569,-3.61445 -6.7442,-7.35702 -6.74413,-8.30879 0,-0.95177 3.18307,-4.49529 7.06525,-7.86185 3.88211,-3.36657 7.06533,-6.90509 7.06539,-7.88218 0,-1.48317 -15.93094,-11.80294 -18.22,-11.80294 -0.4008,0 -2.6726,-0.78313 -5.05278,-1.72677 -2.38018,-0.94363 -4.90363,-1.84541 -5.60944,-2.01117 -0.70581,-0.16576 -4.17842,-1.03968 -7.70763,-1.95023 -3.5292,-0.91055 -11.71305,-2.00016 -18.19856,-2.41747 -10.3326,-0.66484 -12.49259,-0.45162 -17.51344,1.78771 -8.36624,3.73143 -14.51973,12.9673 -16.37874,24.581 -0.95472,5.96447 -0.70883,7.40431 2.31229,13.12341 1.86586,3.53204 5.60765,8.68312 8.30711,11.4576 5.67966,5.83744 5.97824,7.34467 2.01261,9.85271 -5.56436,3.51909 -20.83567,17.01494 -22.56629,19.94921 -0.71924,1.21943 -2.02707,1.64358 -3.63964,1.15795 -2.0281,-0.61077 -2.58134,-2.01827 -2.82613,-7.11021 -0.16786,-3.48821 -0.91971,-7.04466 -1.67005,-7.90249 -0.75028,-0.85783 -0.96075,-1.56423 -0.47096,-1.56424 0.4898,0 -0.0589,-0.90927 -1.22041,-2.01117 -1.68642,-1.60017 -1.93252,-3.24248 -1.19896,-8.20721 1.12079,-7.5855 1.07605,-25.0066 -0.0856,-32.42255 -0.46986,-2.99904 -2.31845,-9.28847 -4.11073,-13.97663 -5.04675,-13.2012 -5.1006,-14.4703 -0.59949,-17.51143 8.02292,-5.42061 12.06467,-15.77662035 6.31594,-16.19096035 -3.56366,-0.25685 -6.40678,-0.38979 -8.8637,-0.385980002275 z M 218.74694,18.87257 c 4.62862,0 5.56416,1.19119 3.01886,3.85983 -1.16971,1.22638 -2.82442,2.97811 -3.31154,2.97811 -1.57016,0 -5.49845,-5.18362 -4.61135,-6.02535 0.47211,-0.44795 3.02187,-0.81259 4.90403,-0.81259 z m 36.26874,303.40269 c 0.23527,-0.062 0.6214,0.20372 1.22034,0.77197 0.84701,0.80368 2.89533,1.46265 4.56031,1.46267 1.6915,0 2.66985,0.53852 2.22665,1.21889 -0.891,1.36796 -6.15651,1.65464 -7.47208,0.4063 -0.47061,-0.44648 -0.85641,-1.65462 -0.85641,-2.68156 0,-0.72611 0.0859,-1.11625 0.32119,-1.17827 z m -61.04016,0.28441 c 0.1869,-0.0304 0.27412,0.23639 0.29974,0.79228 0.048,1.0381 -0.58749,2.54826 -1.43444,3.35196 -0.84708,0.80368 -2.72802,1.39137 -4.175,1.30015 -2.55098,-0.1608 -2.55331,-0.19903 0.0856,-0.69071 1.49686,-0.27888 3.33998,-1.69745 4.08936,-3.16912 0.5159,-1.01323 0.89443,-1.54543 1.1347,-1.58456 z m 5.69508,3.77857 c 0.70314,-0.008 1.11333,0.4448 1.11333,1.25952 0,1.96951 -2.00604,2.41004 -3.12588,0.69071 -0.39052,-0.59955 0.16567,-1.4037 1.22034,-1.78771 0.29125,-0.10603 0.55783,-0.15997 0.79221,-0.16252 z m 135.14039,8.3291 c 0.16327,0.0278 0.30618,0.22141 0.4282,0.56882 0.28371,0.80748 1.1295,1.09261 1.88409,0.65007 0.81098,-0.47555 1.01227,-0.22148 0.47102,0.60945 -1.48528,2.28025 -4.66431,1.70409 -3.70391,-0.67039 0.33003,-0.81616 0.64854,-1.20437 0.9206,-1.15795 z m -195.62388,0.9548 c 0.5816,0 1.16464,0.0952 1.60579,0.26409 0.8823,0.33781 0.15888,0.60947 -1.60579,0.60945 -1.7646,0 -2.48802,-0.27165 -1.60572,-0.60945 0.44115,-0.1689 1.02419,-0.26409 1.60572,-0.26409 z m -5.28826,1.25952 c 0.47575,-0.007 0.83715,0.0427 1.00624,0.20315 0.3057,0.29003 -1.2078,1.11602 -3.36135,1.82834 -2.15354,0.71233 -3.8967,0.84668 -3.89663,0.28441 0,-0.9063 4.19021,-2.28861 6.25174,-2.3159 z m 19.29051,3.85983 c 0.61751,-0.0346 1.15368,0.0989 1.45589,0.38598 0.60393,0.5738 -0.42854,1.11314 -2.31229,1.21889 -2.93527,0.16475 -3.086,0.0228 -1.09195,-1.03605 0.64018,-0.33994 1.33078,-0.53417 1.94835,-0.56882 z m -6.33738,5.68816 c 0.68362,0 0.89868,0.82372 0.4924,1.82834 -0.40628,1.0046 -0.96431,1.82833 -1.24178,1.82834 -0.27734,0 -0.49247,-0.82375 -0.49247,-1.82834 0,-1.0046 0.55817,-1.82835 1.24185,-1.82834 z m 170.14583,12.67649 c 2.52892,0.001 2.51118,0.29463 0.83496,1.5033 -2.78941,2.01135 -4.96166,2.05382 -5.7379,0.12189 -0.4095,-1.01913 0.80974,-1.54544 3.66115,-1.60488 0.46774,-0.01 0.88052,-0.0205 1.24179,-0.0203 z m -30.93759,2.76282 c 0.55577,-0.0206 1.22301,0.0149 1.99117,0.12189 2.11751,0.29489 3.85388,1.03146 3.85381,1.62519 0,1.12102 -1.62024,1.19579 -5.45953,0.24378 -3.07127,-0.76153 -2.79366,-1.90149 -0.38545,-1.99086 z m 32.90732,5.40376 c 0.44581,-0.0174 0.94985,0.0679 1.41306,0.24378 1.02378,0.38872 0.72424,0.67289 -0.77076,0.73133 -1.35284,0.0528 -2.11778,-0.22514 -1.69143,-0.62976 0.21328,-0.20232 0.60332,-0.32793 1.04913,-0.34535 z m -31.53708,1.88928 c 0.96842,-0.0239 1.47733,0.37722 1.47733,1.17827 0,0.91271 -0.85311,0.84751 -0.91203,0.80045 -0.0589,-0.0471 -0.41176,0.2785 -1.78564,-0.23164 -2.44232,-0.90687 -2.43979,-0.95262 0.10702,-1.58456 0.41916,-0.104 0.79056,-0.15455 1.11332,-0.16252 z m -122.08017,2.09243 c 0.46012,0.0194 0.79214,0.49673 0.79214,1.27984 0,1.04413 -0.5788,1.88929 -1.28461,1.88929 -0.70588,0 -1.2846,-0.50741 -1.2846,-1.13764 0,-0.63021 0.57872,-1.47536 1.2846,-1.88928 0.17649,-0.10348 0.33907,-0.14865 0.49247,-0.14221 z m -33.18569,0.0203 c 0.13038,-0.0294 0.26521,-0.0125 0.36401,0.0813 0.39511,0.37492 -6.9e-4,1.36799 -0.87785,2.194 -1.26741,1.19367 -1.4243,1.04476 -0.72787,-0.6907 0.3614,-0.9007 0.85064,-1.49637 1.24171,-1.58456 z"
     id="path2455" />
  <path
     style="fill:#6f6f6f;fill-opacity:1;fill-rule:evenodd;stroke:none"
     d="m 183.48911,288.4464 c 1.1458,-1.95367 -0.71733,-5.59054 -2.48385,-7.07019 -1.42416,-1.19292 -5.38478,-2.80224 -6.2094,-1.17837 -7.29066,14.35765 -12.91174,37.71366 -23.05772,48.44489 -3.23261,3.41902 -6.67282,2.14433 -11.30438,2.70187 -5.7908,0.6971 -16.13272,-2.2006 -20.48818,1.48691 -1.49418,1.26502 -1.30331,4.43888 -0.8279,6.28462 0.25966,1.0081 1.03776,2.50412 2.06975,2.84772 1.98241,0.65997 3.94549,-1.32502 5.98174,-1.81556 3.32572,-0.80119 7.84369,-1.52382 11.19778,-2.21053 2.64334,-0.54119 6.97077,-3.75822 8.79676,-1.86575 1.93609,2.00655 -1.45054,6.29286 -2.89772,8.64135 -3.76989,6.11788 -12.41456,10.34582 -16.97254,17.2827 -1.2115,1.8438 3.8682,3.54001 5.79545,4.71346 0.74829,0.4556 1.84709,1.44431 2.69082,1.17837 7.91049,-2.4933 7.39076,-15.32923 13.10043,-21.09145 0.80255,-0.80992 2.28947,-4.1255 3.45816,-4.04702 1.53857,0.10331 3.28201,1.81539 3.93267,3.14231 2.98597,6.08989 2.26289,16.87719 1.6099,22.11121 -0.36134,2.89608 6.81422,1.32117 8.53217,-1.09703 3.61135,-5.08325 -3.42137,-14.33806 -4.44275,-20.39131 -0.78748,-4.66726 -0.77138,-5.6215 0.22171,-10.71216 0.34167,-1.75148 1.31276,-5.23654 3.12546,-5.69952 7.5743,-1.93446 20.96927,-0.83845 25.93346,-0.31553 1.63984,0.17275 4.11011,-4.05548 4.35094,-5.6042 0.17244,-1.109 -0.89916,-2.60899 -1.81695,-3.31488 -3.41807,-2.62892 -11.03876,1.68675 -15.36688,2.43807 -3.56737,0.61927 -14.64895,1.64456 -13.39928,-0.77979 5.71666,-11.09073 11.74752,-22.61721 18.47035,-34.08019 z"
     id="path2382" />
  <path
     style="fill:#6f6f6f;fill-opacity:1;fill-rule:evenodd;stroke:none"
     d="m 270.86804,278.5413 c -1.45219,-1.39558 -5.12965,0.15049 -6.73249,1.38872 -1.3414,1.03624 -3.20336,3.57621 -2.34175,4.99938 6.37034,10.52235 15.09708,22.85393 21.81779,34.18219 0.8364,1.40981 -4.20686,1.43577 -5.91062,1.49798 -10.42482,0.3731 -14.45827,-2.85388 -21.31203,-0.66475 -1.39512,0.44561 -2.41862,3.05442 -2.26858,4.44389 0.0922,0.8534 1.13381,2.22604 2.26858,2.4997 4.27557,1.03107 12.48341,-1.496 17.85573,-1.94421 3.73672,-0.3148 9.66632,0.54696 12.00135,3.33292 2.84703,3.39681 1.11305,10.10838 0.87819,14.44266 -0.31063,5.73205 -3.56147,13.15611 -3.21987,18.88656 0.25644,4.25206 3.81319,3.68043 5.61335,3.4985 1.06584,-0.10771 2.12867,0.18883 2.87539,-2.72978 1.40888,-5.50661 -2.78598,-14.22841 -0.29269,-19.37753 0.85901,-1.77405 3.21665,-4.0266 5.26894,-4.16615 2.67403,-0.18182 4.49091,2.65097 6.16171,4.64029 3.58251,4.2655 3.74625,12.97315 7.59596,17.02369 1.55262,1.63363 4.81963,3.73313 7.02517,3.05519 2.20712,-0.67844 4.113,-4.20617 3.80538,-6.38811 -1.16636,-8.27297 -18.51667,-12.71172 -16.69959,-20.63436 0.68485,-2.98593 5.00489,-4.34913 8.21078,-4.64029 2.71412,-0.2465 6.2105,1.36064 8.78149,2.22195 3.26214,1.09287 4.79771,3.68664 8.05403,2.57815 1.6634,-0.56626 3.76392,-2.26698 3.46233,-3.91922 -0.49822,-2.72914 -2.67588,-4.53459 -5.3693,-5.60252 -8.83507,-3.50312 -21.18419,3.60153 -29.42238,-1.02963 -3.89307,-2.18851 -9.37987,-11.11698 -14.17943,-21.3521 -4.23358,-9.02822 -8.69167,-21.21138 -13.92744,-26.24312 z"
     id="path3156" />
  <path
     style="fill:#726b6b;fill-opacity:1;fill-rule:evenodd;stroke:#000000;stroke-width:0.66736919px;stroke-linecap:butt;stroke-linejoin:miter;stroke-opacity:1"
     d="m 115.8615,335.918 c -1.77522,-0.22557 -2.70788,3.11347 -3.31168,4.71346 -0.5259,1.39366 -0.51747,4.90985 -0.51747,4.90985 0,0 5.27531,-1.56435 6.00249,-3.4369 0.71287,-1.83566 -0.12983,-5.92675 -2.17334,-6.18641 z"
     id="path3158" />
  <path
     style="fill:#726b6b;fill-opacity:1;fill-rule:evenodd;stroke:#000000;stroke-width:0.66736919px;stroke-linecap:butt;stroke-linejoin:miter;stroke-opacity:1"
     d="m 128.69439,367.63567 c -2.31064,2.0609 3.31174,9.52512 3.31174,9.52512 0,0 4.31141,-4.828 3.4152,-6.97199 -0.80139,-1.91707 -5.14321,-3.96565 -6.72694,-2.55313 z"
     id="path3160" />
  <path
     style="fill:#726b6b;fill-opacity:1;fill-rule:evenodd;stroke:#000000;stroke-width:0.66736919px;stroke-linecap:butt;stroke-linejoin:miter;stroke-opacity:1"
     d="m 160.08505,371.39679 c -0.5618,2.34883 6.43981,5.20769 6.43981,5.20769 0,0 4.15876,-7.34416 1.68307,-7.84625 -0.76405,-0.15496 -7.71468,0.93203 -8.12288,2.63856 z"
     id="path3162" />
  <path
     style="fill:#726b6b;fill-opacity:1;fill-rule:evenodd;stroke:#000000;stroke-width:0.66736919px;stroke-linecap:butt;stroke-linejoin:miter;stroke-opacity:1"
     d="m 197.26014,323.97209 c 1.64121,-0.25342 3.46507,1.10592 4.24433,2.4997 0.61394,1.09793 0.80502,4.58277 0.80502,4.58277 0,0 -5.51695,-1.58227 -6.2934,-3.6801 -0.44882,-1.2126 -0.7933,-3.08778 1.24405,-3.40237 z"
     id="path3164" />
  <path
     style="fill:#726b6b;fill-opacity:1;fill-rule:evenodd;stroke:#000000;stroke-width:0.66736919px;stroke-linecap:butt;stroke-linejoin:miter;stroke-opacity:1"
     d="m 250.81382,322.17039 c -2.7572,-0.0673 -4.76057,7.46299 -4.76057,7.46299 0,0 6.1006,-0.42907 7.03737,-2.55313 0.73459,-1.66572 -0.37442,-4.86341 -2.2768,-4.90986 z"
     id="path3166" />
  <path
     style="fill:#726b6b;fill-opacity:1;fill-rule:evenodd;stroke:#000000;stroke-width:0.66736919px;stroke-linecap:butt;stroke-linejoin:miter;stroke-opacity:1"
     d="m 284.05068,366.60572 c -1.65457,1.46969 0.51227,7.1519 0.51227,7.1519 0,0 7.08615,-3.42469 6.22023,-6.04093 -0.69026,-2.0855 -5.05066,-2.60486 -6.7325,-1.11097 z"
     id="path3168" />
  <path
     style="fill:#726b6b;fill-opacity:1;fill-rule:evenodd;stroke:#000000;stroke-width:0.66736919px;stroke-linecap:butt;stroke-linejoin:miter;stroke-opacity:1"
     d="m 314.7713,365.96632 c -0.78364,1.64529 2.51405,1.94492 3.4152,3.5351 0.44944,0.79305 0.82797,2.89681 0.82797,2.89681 0,0 4.49789,-4.22729 3.10477,-6.28462 -1.39293,-2.05711 -6.28669,-2.37545 -7.34794,-0.14729 z"
     id="path2502" />
  <path
     style="fill:#726b6b;fill-opacity:1;fill-rule:evenodd;stroke:#000000;stroke-width:0.66736919px;stroke-linecap:butt;stroke-linejoin:miter;stroke-opacity:1"
     d="m 336.5599,333.64959 c 1.90862,0.29723 1.7039,4.82153 1.7039,4.82153 0,0 -3.93424,1.13419 -4.7333,-0.53166 -0.88998,-1.85552 0.90922,-4.62004 3.0294,-4.28987 z"
     id="path2504" />
  <path
     style="fill:#6f6f6f;fill-opacity:1;fill-rule:evenodd;stroke:none"
     d="m 192.8191,13.19861 c 9.22052,2.24748 14.56913,9.25725 17.63327,15.36232 2.5984,5.17709 3.88828,12.46716 4.5536,18.16648 0.36976,3.16712 1.23253,8.63546 -0.62093,11.29267 -3.13299,4.49146 -12.12413,6.05519 -17.8005,6.08822 -2.21761,0.0129 -6.92748,-0.62664 -9.95791,-1.76628 -3.70522,-1.39338 -5.56573,-3.33997 -5.56573,-3.33997 0,0 8.33979,0.51173 12.62591,-0.19639 3.90842,-0.64573 10.05006,-0.80807 13.45389,-4.32068 3.80044,-3.92198 0.80186,-12.82718 -2.27687,-17.2827 -2.94616,-4.26368 -6.28319,-5.98217 -11.64729,-6.28053 -3.82572,-0.2128 -8.82581,2.08854 -11.92661,4.22538 -2.13155,1.46893 -7.48379,7.36189 -7.48379,7.36189 0,0 -0.48815,-15.52627 3.5144,-20.1711 3.46644,-4.02266 10.19448,-10.43217 15.49856,-9.13931 z"
     id="path2506" />
  <path
     style="fill:#716c6c;fill-opacity:1;fill-rule:evenodd;stroke:none"
     d="m 206.73182,50.59776 c -2.65102,1.04668 -5.8256,1.25033 -8.75409,1.49166 -4.33011,0.35682 -5.27407,0.64372 -11.37762,0.0319 -6.1315,-0.60949 -8.60842,-4.92178 -8.60842,-4.92178 0,0 5.21234,0.93839 7.69378,0.82132 3.75002,-0.17692 8.65892,-0.15869 12.2726,-1.12578 2.09963,-0.56188 5.44062,-3.59571 7.50154,-2.91715 0.95767,0.31531 1.48583,1.14356 1.69876,2.08392 0.24171,1.06722 0.63559,4.11662 -0.42655,4.53596 z"
     id="path2508" />
</svg>
